# xmcd
#
# Track frame offsets:
#	150
#	9455
#	21580
#	30237
#	41917
#	52072
#	64022
#	73362
#	87410
#	101405
#	111685
#	124132
#	136845
#	148040
#	160165
#	169882
#	181460
#	194680
#	205760
#	219570
#	232222
#	243817
#
# Disc length: 3431 seconds
#
# Revision: 1
# Processed by: cddbd v1.4PL0 Copyright (c) Steve Scherf et al.
# Submitted via: audiograbber 1.82.02
#
DISCID=520d6516
DTITLE=Harden Trio - Tippy Toeing - Sing Me Back Home
DYEAR=1900
DGENRE=Country
TTITLE0=Tippy Toeing
TTITLE1=How Long Does It Take
TTITLE2=The Race Is On
TTITLE3=Tall Green Pines
TTITLE4=Little Boy Walk Like A Man
TTITLE5=Is It Really Over
TTITLE6=Little White House
TTITLE7=Dear Brother
TTITLE8=Make The World Go Away
TTITLE9=Hey Pinnoch
TTITLE10=Poor Boy
TTITLE11=Sing Me Back Home
TTITLE12=By The Time I Get To Phoenix
TTITLE13=Skip A Rope
TTITLE14=Here Comes Heaven
TTITLE15=My Friend Mister Echo
TTITLE16=Childhood Places
TTITLE17=He Looks A Lot Like You
TTITLE18=Husbands And Wives
TTITLE19=What Am I Gonna Tell 'Em Now
TTITLE20=Of My First Love
TTITLE21=Don't Remind Me
EXTD=
EXTT0=
EXTT1=
EXTT2=
EXTT3=
EXTT4=
EXTT5=
EXTT6=
EXTT7=
EXTT8=
EXTT9=
EXTT10=
EXTT11=
EXTT12=
EXTT13=
EXTT14=
EXTT15=
EXTT16=
EXTT17=
EXTT18=
EXTT19=
EXTT20=
EXTT21=
PLAYORDER=
